<svg width="30" height="30" viewBox="0 0 30 30" fill="none" xmlns="http://www.w3.org/2000/svg">
<path fill-rule="evenodd" clip-rule="evenodd" d="M15 3.125C11.8506 3.125 8.8301 4.37611 6.60311 6.60311C4.37611 8.8301 3.125 11.8506 3.125 15C3.125 18.1494 4.37611 21.1699 6.60311 23.3969C8.8301 25.6239 11.8506 26.875 15 26.875C18.1494 26.875 21.1699 25.6239 23.3969 23.3969C25.6239 21.1699 26.875 18.1494 26.875 15C26.875 11.8506 25.6239 8.8301 23.3969 6.60311C21.1699 4.37611 18.1494 3.125 15 3.125ZM0 15C0 6.71625 6.71625 0 15 0C23.2838 0 30 6.71625 30 15C30 23.2838 23.2838 30 15 30C6.71625 30 0 23.2838 0 15ZM11.7163 11.6313C11.0463 12.2844 10.5863 13.1225 10.395 14.0384C10.2037 14.9543 10.2899 15.9064 10.6424 16.7731C10.995 17.6398 11.5979 18.3817 12.3742 18.9039C13.1506 19.4262 14.065 19.7052 15.0006 19.7052C15.9363 19.7052 16.8507 19.4262 17.627 18.9039C18.4033 18.3817 19.0063 17.6398 19.3588 16.7731C19.7114 15.9064 19.7975 14.9543 19.6063 14.0384C19.415 13.1225 18.955 12.2844 18.285 11.6313L20.4662 9.39375C21.5813 10.4807 22.3469 11.8754 22.6652 13.3996C22.9836 14.9239 22.8403 16.5084 22.2536 17.9508C21.6668 19.3931 20.6634 20.6278 19.3715 21.497C18.0795 22.3662 16.5578 22.8305 15.0006 22.8305C13.4435 22.8305 11.9217 22.3662 10.6298 21.497C9.33784 20.6278 8.3344 19.3931 7.7477 17.9508C7.16099 16.5084 7.01766 14.9239 7.33603 13.3996C7.6544 11.8754 8.42 10.4807 9.535 9.39375L11.7163 11.6313ZM13.4375 6.25V11.25H16.5625V6.25H13.4375Z" fill="white"/>
</svg>
